<svg version="1.1" id="appiusLogo" xmlns="http://www.w3.org/2000/svg" xmlns:xlink="http://www.w3.org/1999/xlink" x="0px" y="0px" width="189px" height="61px" viewBox="0 0 546.9 176.57" enable-background="new 0 0 546.9 176.57" xml:space="preserve">
                    <path fill="#FFF" d="M339.265,25.938c-7.15,0-12.971-5.816-12.971-12.967c0-7.154,5.82-12.971,12.971-12.971
		    c7.151,0,12.972,5.817,12.972,12.971C352.237,20.122,346.417,25.938,339.265,25.938"></path>
                        <path fill="#FFF" d="M339.265,3.872c-5.013,0-9.096,4.079-9.096,9.1c0,5.009,4.083,9.088,9.096,9.088c5.021,0,9.097-4.079,9.097-9.088
		    C348.362,7.951,344.287,3.872,339.265,3.872"></path>
                        <path fill="#FFF" d="M339.265,37.714c-6.827,0-12.371,5.544-12.371,12.375v76.743c0,6.831,5.544,12.375,12.371,12.375
		    c6.828,0,12.372-5.544,12.372-12.375V50.089C351.637,43.258,346.093,37.714,339.265,37.714"></path>
                        <path fill="#FFF" d="M437.752,37.714c-6.828,0-12.372,5.544-12.372,12.375v45.38c-0.53,8.293-3.598,24.108-19.245,24.108h-0.008h-0.007
		    c-15.647,0-18.707-15.815-19.246-24.108v-45.38c0-6.831-5.543-12.375-12.371-12.375c-6.835,0-12.379,5.544-12.379,12.375v39.683
		    c0,25.573,11.487,37.883,22.713,43.838c10.757,5.701,21.283,5.598,21.283,5.598l0.007-0.016l0.008,0.016
		    c0,0,10.542,0.104,21.283-5.598c11.233-5.955,22.705-18.265,22.705-43.838V50.089C450.124,43.258,444.58,37.714,437.752,37.714"></path>
                        <path fill="#FFF" d="M85.938,37.714c-6.835,0-12.375,5.544-12.375,12.375v4.283C67.47,47.248,56.536,37.714,41.62,37.714
		    C17.808,37.714,0,59.208,0,85.643s11.999,53.564,41.059,53.564c16.919,0,27.011-9.069,32.505-18.719v6.344
		    c0,6.831,5.54,12.375,12.375,12.375c6.828,0,12.372-5.544,12.372-12.375V50.089C98.31,43.258,92.766,37.714,85.938,37.714
		     M73.494,88.511v0.884c0,5.813-3.752,31.87-24.935,31.87c-21.183,0-24.935-24.742-24.935-31.87c0-7.123,2.249-34.123,24.182-34.123
		    c21.936,0,25.688,22.125,25.688,33.186V88.511z"></path>
                        <path fill="#FFF" d="M274.177,37.714c-15.04,0-26.015,9.685-32.085,16.823v-4.452c0-6.827-5.54-12.371-12.372-12.371
		    c-6.835,0-12.379,5.544-12.379,12.371V164.2c0,6.835,5.543,12.371,12.379,12.371c6.832,0,12.372-5.536,12.372-12.371v-43.969
		    c5.474,9.737,15.585,18.976,32.643,18.976c29.063,0,41.063-27.13,41.063-53.561C315.797,59.212,297.982,37.714,274.177,37.714
		     M267.238,121.265c-21.187,0-24.935-26.061-24.935-31.87v-0.884v-0.054c0-11.061,3.748-33.182,25.685-33.182
		    c21.933,0,24.186,26.996,24.186,34.119C292.173,96.519,288.421,121.265,267.238,121.265"></path>
                        <path fill="#FFF" d="M166.014,37.714c-15.036,0-26.015,9.685-32.085,16.823v-4.452c0-6.827-5.536-12.371-12.372-12.371
		    c-6.832,0-12.375,5.544-12.375,12.371V164.2c0,6.835,5.543,12.371,12.375,12.371c6.835,0,12.372-5.536,12.372-12.371v-43.969
		    c5.474,9.737,15.585,18.976,32.647,18.976c29.06,0,41.058-27.13,41.058-53.561C207.634,59.212,189.823,37.714,166.014,37.714
		     M159.079,121.265c-21.187,0-24.935-26.061-24.935-31.87v-0.884v-0.054c0-11.061,3.748-33.182,25.681-33.182
		    c21.94,0,24.189,26.996,24.189,34.119C184.014,96.519,180.262,121.265,159.079,121.265"></path>
                        <path fill="#FFF" d="M504.776,124.402c12.502,0,17.984-5.447,17.984-15.239c0-10.711-35.1-15.459-43.98-19.961
		    c-8.865-4.501-16.492-12.367-16.492-23.87c0-11.498,11.372-28.122,39.628-28.122c28.249,0,39.236,16.378,39.236,21.126
		    c0,4.751-1.745,10.745-9.741,10.745c-8.005,0-12.871-8.565-15.862-11.549c-2.722-2.733-7.089-5.32-14.14-5.32
		    c-6.628,0-16.747,1.938-16.747,12.121c0,11.245,28.126,14.251,39.621,17.623c11.495,3.375,22.62,12.498,22.62,25.623
		    c0,13.121-8.88,31.628-43.864,31.628c-35,0-41.882-20.252-41.882-26.504c0-6.255,4.383-10.126,10.127-10.126
		    c2.937,0,6.75,2.503,9.096,7.666C483.747,117.671,492.536,124.402,504.776,124.402"></path>
                </svg>