<svg xmlns="http://www.w3.org/2000/svg" viewBox="15 265 755 270" enable-background="new 15 265 755 270" width="251.66" height="90"><g fill="#fff"><path d="M348.5 492.5c4.1 4.2 6.2 9 6.5 14.1.2 1.6.1 3.5-.4 5.7s-1.3 4.4-2.6 6.3c-1.3 2-2.8 4-4.6 5.8-1.8 1.9-3.3 3-4.6 3.5-5.7 3-13 4.2-21.8 3.5-10.9-.9-18-3.1-21.3-6.5v-17.7c.2.2.4.4.6.7 3.4 6 6.9 10.3 10.7 13 3.8 2.8 8.2 4.3 13.1 4.7 9.3.8 15.3-1.4 18.1-6.5.1-.4.3-.9.7-1.7.6-1.5.9-3.2 1-5.1.2-4-1-7.4-3.6-10.4-2.6-2.9-7.9-6.9-15.9-12.2-10.2-6.6-16.9-11.7-20.2-15.2-3.8-4.3-5.5-9.5-5.1-15.5.4-6.3 3.3-11.4 8.8-15.3 5.5-3.9 12.3-5.5 20.5-4.9 5.8.6 11 1.8 15.5 3.6 4.2 1.8 6.2 3.3 5.9 4.7.1.8.2 6 .3 15.6.6.9-.4-.4-2.7-4-2.4-3.6-5.2-6.7-8.7-9.4-3.1-2.5-7.4-3.9-12.7-4.3-4.7-.4-8.5.4-11.4 2.4-2.9 1.9-4.5 4.9-4.8 9-.2 3.8 1 7.2 3.6 10.2 2.4 2.8 6.9 6.2 13.7 10.4 10.4 6.1 17.5 11.3 21.4 15.5zM459.8 503.8c.4.3.6 2.5.6 6.6 0 4.2-.3 8-.7 11.3-.1.3-.3.6-.4 1l-.7.7c-1.4 1.3-4 2.6-7.9 4-6.4 2.3-14.5 3.5-24.1 3.5-13.5 0-25-4.4-34.4-13.1-9.7-8.8-14.6-19.8-14.8-33.1v-.2c.2-13.2 5.1-24.2 14.8-33.1 9.5-8.8 21-13.1 34.4-13.1 9.6 0 17.6 1.2 24.1 3.5 3.9 1.4 6.5 2.7 7.9 4l.7.7c.2.4.3.7.4 1 .5 3.4.7 7.2.7 11.3s-.2 6.3-.6 6.6h-.3c-.2-1.1-.7-2.5-1.4-4-.8-1.6-1.9-3.2-3.4-4.8-1.5-1.7-3.4-3.3-5.7-5-2.3-1.7-5.1-3.3-8.5-4.8-3.7-1.7-8.5-2.5-14.4-2.5-10 0-18.1 3.3-24.5 10-6.8 7.2-10.2 17.1-10.2 29.6v1.5999999999999999c0 12.5 3.4 22.4 10.2 29.6 6.3 6.6 14.5 10 24.5 10 5.9 0 10.7-.8 14.4-2.5 3.3-1.5 6.1-3.1 8.5-4.8 2.3-1.7 4.2-3.4 5.7-5 1.5-1.7 2.7-3.3 3.4-4.8.8-1.6 1.2-2.9 1.4-4h.3v-.2zM546 529.4c-.7.1-1.6.2-2.9.2-7-.4-16-.6-26.8-.6-8 0-18.6.1-32 .2v-.2c2.4-.4 4.3-1.6 5.6-3.7 1.4-2.1 2-4.9 2-8.7l.2-63.1h-.2v-.2c0-3.7-.7-6.6-2-8.7-1.4-2.1-3.2-3.3-5.6-3.7v.1l25.3-.2c6.8 0 13.1-.1 19-.3h1c4.1-.1 7.9-.3 11.3-.6 3-.2 4.4 0 4.4.6v2.2l.2 12h-.2c-.2-1.2-.7-2.3-1.4-3.2-.8-.9-1.9-1.7-3.6-2.4-1.7-.7-3.9-1.3-6.6-1.7-2.8-.4-6.3-.7-10.7-.9-3.9-.1-9.2-.2-16.1-.2-1.5 0-2.5.3-2.9.7-.2.3-.3 1-.3 2.1v28.2c0 1.1.7 1.7 1.9 1.7 2.4 0 11.1.1 26.2.2 3.7 0 6.3-.9 8-2.6 1.7-1.7 2.7-3.8 3-6.1h.2c-.1 3.6-.1 11 .2 22.3h-.2c-.4-2.4-1.6-4.3-3.7-5.6-2.1-1.4-5-2-8.7-2-5.8-.4-14.4-.5-25.7-.4-.8 0-1.3.3-1.3 1v29.5c0 4.1 2.5 6.7 7.3 7.7 1.2.2 5.4.3 12.6.3 3.3 0 6.3-.3 8.9-1 5.5-1.6 9.6-3.3 12.2-5.2 2.6-1.9 4.3-4 5-6.4l.2.2-2.8 17.9-.2.8-.8-.2zM617.6 492.5c4.1 4.2 6.2 9 6.5 14.1.2 1.6.1 3.5-.4 5.7-.4 2.3-1.3 4.4-2.6 6.3-1.3 2-2.8 4-4.6 5.8-1.8 1.9-3.3 3-4.6 3.5-5.7 3-13 4.2-21.8 3.5-10.9-.9-18-3.1-21.3-6.5v-17.7c.2.2.4.4.6.7 3.4 6 6.9 10.3 10.7 13 3.8 2.8 8.2 4.3 13.1 4.7 9.3.8 15.3-1.4 18.1-6.5.1-.4.3-.9.7-1.7.6-1.5.9-3.2 1-5.1.2-4-1-7.4-3.6-10.4-2.6-2.9-7.9-6.9-15.9-12.2-10.2-6.6-16.9-11.7-20.2-15.2-3.8-4.3-5.5-9.5-5.1-15.5.4-6.3 3.3-11.4 8.8-15.3 5.5-3.9 12.3-5.5 20.5-4.9 5.8.6 11 1.8 15.5 3.6 4.2 1.8 6.2 3.3 5.9 4.7.1.8.2 6 .3 15.6.6.9-.4-.4-2.7-4-2.4-3.6-5.2-6.7-8.7-9.4-3.1-2.5-7.4-3.9-12.7-4.3-4.7-.4-8.5.4-11.4 2.4-2.9 1.9-4.5 4.9-4.8 9-.2 3.8 1 7.2 3.6 10.2 2.4 2.8 6.9 6.2 13.7 10.4 10.5 6.1 17.6 11.3 21.4 15.5zM681.7 439.6c-2.5.2-4.6 1-6.2 2.3-1.7 1.4-3.1 3-4.4 5v69.6c0 2.6.7 4.7 2.1 6.5.9 1.4 2.1 2.6 3.5 3.5 1.4 1 3 1.7 4.8 2 .2.2.3.3.2.4-.4.3-1.5.4-3.5.3-11.9-.5-21.1-.5-27.5 0-1.4.1-2.3-.1-2.8-.6 3.1-.3 5.8-1.4 8-3.4s3.3-4.3 3.5-7v-67c0-1.9-.4-3.5-1.1-4.8-.8-1.9-1.7-3.4-3-4.8s-2.6-2-4.1-2c.8-.2 5.9-.3 15.6-.4 9.6 0 14.6.2 14.9.4zM752.1 492.5c4.1 4.2 6.2 9 6.5 14.1.2 1.6.1 3.5-.4 5.7-.4 2.3-1.3 4.4-2.6 6.3-1.3 2-2.8 4-4.6 5.8-1.8 1.9-3.3 3-4.6 3.5-5.7 3-13 4.2-21.8 3.5-10.9-.9-18-3.1-21.3-6.5v-17.7c.2.2.4.4.6.7 3.4 6 6.9 10.3 10.7 13 3.8 2.8 8.2 4.3 13.1 4.7 9.3.8 15.3-1.4 18.1-6.5.1-.4.3-.9.7-1.7.6-1.5.9-3.2 1-5.1.2-4-1-7.4-3.6-10.4-2.6-2.9-7.9-6.9-15.9-12.2-10.2-6.6-16.9-11.7-20.2-15.2-3.8-4.3-5.5-9.5-5.1-15.5.4-6.3 3.3-11.4 8.8-15.3 5.5-3.9 12.3-5.5 20.5-4.9 5.8.6 11 1.8 15.5 3.6 4.2 1.8 6.2 3.3 5.9 4.7.1.8.2 6 .3 15.6.6.9-.4-.4-2.7-4-2.4-3.6-5.2-6.7-8.7-9.4-3.1-2.5-7.4-3.9-12.7-4.3-4.7-.4-8.5.4-11.4 2.4-2.9 1.9-4.5 4.9-4.8 9-.2 3.8 1 7.2 3.6 10.2 2.4 2.8 6.9 6.2 13.7 10.4 10.4 6.1 17.5 11.3 21.4 15.5zM131.2 429.9c-24.2 8.5-48.4 16.9-75.8 26.5 30.9-64 60.1-125 90.5-188.2 19.7 41 38.2 79.5 57.1 118.8-4.6 2-8.3 3.6-13.7 5.7-14.1-30.7-28.1-61-43.4-94.1-22.6 48.9-44.1 95.4-65.3 141.8l2.6 2.4 47.5-15.4c.1.7.3 1.7.5 2.5zM272.1 531c-27 4.2-75.6-13.7-96.1-21.5 12.7 2.1 55.6 7 71.2 9.6-17.7-38.7-34.5-75.1-51.7-112.5 4.9-2 8.6-3.6 14-5.7 20.8 43 41.3 85.6 62.6 130.1zM89.9 465.2c-30.1 5-34.5 30.4-45.2 53.8 12.5-2 60.5-7.5 71.2-9.3-18.9 7.8-73 25.5-96.9 21.8 8.8-17.9 16.9-35.3 25.7-52.2 1.1-2.3 4.6-4.1 7.3-5 11.9-4.2 23.9-8 35.8-12 .6.9 1.4 1.9 2.1 2.9z"/></g></svg>