<?xml version="1.0" encoding="utf-8"?>
<!-- Generator: Adobe Illustrator 21.0.2, SVG Export Plug-In . SVG Version: 6.00 Build 0)  -->
<svg version="1.1" id="Layer_1" xmlns="http://www.w3.org/2000/svg" xmlns:xlink="http://www.w3.org/1999/xlink" x="0px" y="0px"
	 viewBox="0 0 322.1 36.5" style="enable-background:new 0 0 322.1 36.5;" xml:space="preserve" width="794" height="90">
<style type="text/css">
	.st0{fill:#FFFFFF;}
</style>
<g>
	<path class="st0" d="M0,1.2h6.8c2.7,0,4.8,0.3,6.3,1s2.6,1.6,3.5,3s1.3,2.8,1.3,4.5c0,1.5-0.4,2.9-1.1,4.2S15,16.2,13.5,17
		c1.8,0.6,3.2,1.3,4.1,2.1c1,0.8,1.7,1.8,2.3,3c0.5,1.2,0.8,2.4,0.8,3.8c0,2.8-1,5.1-3,7s-4.7,2.9-8.1,2.9H0V1.2z M3.3,4.6v11h2
		c2.4,0,4.2-0.2,5.3-0.7c1.1-0.4,2-1.1,2.7-2.1s1-2,1-3.2c0-1.6-0.6-2.8-1.7-3.7C11.5,5,9.7,4.6,7.3,4.6H3.3z M3.3,19.1v13.2h4.3
		c2.5,0,4.4-0.2,5.5-0.7s2.1-1.3,2.8-2.3s1.1-2.2,1.1-3.4c0-1.5-0.5-2.9-1.5-4s-2.4-1.9-4.1-2.3c-1.2-0.3-3.2-0.4-6.1-0.4h-2V19.1z"
		/>
	<path class="st0" d="M23.6,1.2h6.9c3.8,0,6.4,0.2,7.8,0.5c2,0.5,3.7,1.5,5,3s1.9,3.4,1.9,5.7c0,1.9-0.4,3.5-1.3,5
		c-0.9,1.4-2.1,2.5-3.8,3.2c-1.6,0.7-3.9,1.1-6.8,1.1l12.4,16h-4.3L29,19.7h-1.9v16h-3.4V1.2H23.6z M27.1,4.6v11.7H33
		c2.3,0,4-0.2,5.1-0.7c1.1-0.4,2-1.1,2.6-2.1s0.9-2,0.9-3.2s-0.3-2.2-0.9-3.2c-0.6-0.9-1.4-1.6-2.5-2c-1-0.4-2.7-0.6-5.1-0.6
		L27.1,4.6L27.1,4.6z"/>
	<path class="st0" d="M64.6,1.2l16.1,34.5H77l-5.4-11.3H56.7l-5.4,11.3h-3.8L63.8,1.2H64.6z M64.2,8.5L58.3,21h11.8L64.2,8.5z"/>
	<path class="st0" d="M80.6,1.2H84v34.5h-3.4V1.2z"/>
	<path class="st0" d="M88.9,35.7V1.2h0.8l22.9,26.4V1.2h3.4v34.5h-0.8L92.5,9.6v26.1H88.9z"/>
	<path class="st0" d="M138.3,5.9l-4.9,4.3c-1.7-2.4-3.4-3.6-5.2-3.6c-0.9,0-1.6,0.2-2.1,0.7s-0.8,1-0.8,1.6s0.2,1.1,0.6,1.6
		c0.5,0.7,2.1,2.2,4.8,4.4c2.5,2.1,4,3.4,4.6,4c1.3,1.3,2.3,2.6,2.8,3.9s0.8,2.6,0.8,4c0,2.8-1,5.2-2.9,7c-2,1.8-4.5,2.8-7.6,2.8
		c-2.5,0-4.6-0.6-6.4-1.8s-3.4-3.1-4.7-5.7l5.5-3.3c1.7,3,3.6,4.6,5.7,4.6c1.1,0,2.1-0.3,2.8-1s1.2-1.4,1.2-2.3
		c0-0.8-0.3-1.6-0.9-2.3s-1.9-2-3.8-3.6c-3.8-3.1-6.2-5.4-7.3-7.1s-1.6-3.3-1.6-5c0-2.4,0.9-4.4,2.7-6.2s4.1-2.6,6.7-2.6
		c1.7,0,3.4,0.4,4.9,1.2C134.8,2.3,136.4,3.8,138.3,5.9z"/>
	<path class="st0" d="M137.7,1.2h19.1v6.5h-6.3v28h-6.7v-28h-6.1V1.2z"/>
	<path class="st0" d="M173.6,0.3c4.9,0,9.1,1.8,12.6,5.3s5.3,7.8,5.3,12.9c0,5-1.7,9.3-5.2,12.8s-7.7,5.2-12.6,5.2
		c-5.2,0-9.5-1.8-12.9-5.4s-5.1-7.8-5.1-12.8c0-3.3,0.8-6.3,2.4-9.1c1.6-2.8,3.8-5,6.6-6.6S170.3,0.3,173.6,0.3z M173.5,6.7
		c-3.2,0-5.9,1.1-8,3.3s-3.3,5-3.3,8.5c0,3.8,1.4,6.8,4.1,9c2.1,1.7,4.6,2.6,7.3,2.6c3.1,0,5.8-1.1,8-3.4s3.3-5,3.3-8.3
		s-1.1-6.1-3.3-8.3S176.6,6.7,173.5,6.7z"/>
	<path class="st0" d="M195,1.2h7c3.8,0,6.5,0.3,8.1,1S213,4,214,5.6s1.5,3.4,1.5,5.6c0,2.3-0.5,4.2-1.6,5.7s-2.7,2.7-4.9,3.5
		l8.2,15.3H210l-7.8-14.6h-0.6v14.6H195V1.2z M201.6,14.7h2.1c2.1,0,3.5-0.3,4.3-0.8s1.2-1.5,1.2-2.7c0-0.8-0.2-1.4-0.6-2
		c-0.4-0.6-0.9-1-1.6-1.2c-0.7-0.2-1.9-0.4-3.6-0.4h-1.8L201.6,14.7L201.6,14.7z"/>
	<path class="st0" d="M221.8,1.2h6.4l8,24l8.1-24h6.4l5.8,34.5h-6.3l-3.7-21.8L239,35.7h-5.8L226,13.9l-3.8,21.8h-6.4L221.8,1.2z"/>
	<path class="st0" d="M258.7,1.2h18.8v6.4h-12.3v6.2h12.3v6.3h-12.3v9.1h12.3v6.4h-18.8V1.2z"/>
	<path class="st0" d="M280,1.2h7c3.8,0,6.5,0.3,8.1,1S298,4,299,5.6s1.5,3.4,1.5,5.6c0,2.3-0.5,4.2-1.6,5.7s-2.7,2.7-4.9,3.5
		l8.2,15.3H295l-7.8-14.6h-0.6v14.6H280V1.2z M286.6,14.7h2.1c2.1,0,3.5-0.3,4.3-0.8s1.2-1.5,1.2-2.7c0-0.8-0.2-1.4-0.6-2
		s-0.9-1-1.6-1.2s-1.9-0.4-3.6-0.4h-1.8V14.7z"/>
	<path class="st0" d="M321.5,5.9l-4.9,4.3c-1.7-2.4-3.4-3.6-5.2-3.6c-0.9,0-1.6,0.2-2.1,0.7s-0.8,1-0.8,1.6s0.2,1.1,0.6,1.6
		c0.5,0.7,2.1,2.2,4.8,4.4c2.5,2.1,4,3.4,4.6,4c1.3,1.3,2.3,2.6,2.8,3.9s0.8,2.6,0.8,4c0,2.8-1,5.2-2.9,7c-2,1.8-4.5,2.8-7.6,2.8
		c-2.5,0-4.6-0.6-6.4-1.8s-3.4-3.1-4.7-5.7l5.5-3.3c1.7,3,3.6,4.6,5.7,4.6c1.1,0,2.1-0.3,2.8-1s1.2-1.4,1.2-2.3
		c0-0.8-0.3-1.6-0.9-2.3s-1.9-2-3.8-3.6c-3.8-3.1-6.2-5.4-7.3-7.1s-1.6-3.3-1.6-5c0-2.4,0.9-4.4,2.7-6.2s4.1-2.6,6.7-2.6
		c1.7,0,3.4,0.4,4.9,1.2C318,2.3,319.7,3.8,321.5,5.9z"/>
</g>
</svg>
