<?xml version="1.0" encoding="utf-8"?>
<!-- Generator: Adobe Illustrator 19.1.0, SVG Export Plug-In . SVG Version: 6.00 Build 0)  -->
<svg version="1.1" id="Layer_1" xmlns="http://www.w3.org/2000/svg" xmlns:xlink="http://www.w3.org/1999/xlink" x="0px" y="0px"
	 viewBox="-251.9 320 681 275.8" style="enable-background:new -251.9 320 681 275.8;" xml:space="preserve" width="148" height="60">
<style type="text/css">
	.st0{clip-path:url(#SVGID_2_);fill:#FFFFFF;}
	.st1{fill:#FFFFFF;}
	.st2{clip-path:url(#SVGID_4_);fill:#FFFFFF;}
</style>
<g>
	<defs>
		<rect id="SVGID_1_" x="-251.9" y="320" width="681" height="275.8"/>
	</defs>
	<clipPath id="SVGID_2_">
		<use xlink:href="#SVGID_1_"  style="overflow:visible;"/>
	</clipPath>
	<path class="st0" d="M-134.2,466.8c19.7,0,31.6-8.8,31.6-23.9v-0.7c0-15.8-12.3-23.5-31.3-23.5h-35.8v48.1H-134.2z M-251.9,349.8
		h120.2c43.6,0,71.3,10.9,88.5,28.1c14.8,14.8,22.5,33,22.5,58.3v0.7c0,35.8-18.6,60.8-48.5,75.2l57.3,83.6h-93.8l-46.4-70.3h-17.6
		v70.3h-82.2V349.8z"/>
</g>
<polygon class="st1" points="140.6,525.5 60.1,525.5 60.1,349.8 -22.1,349.8 -22.1,595.8 140.6,595.8 "/>
<path class="st1" d="M271.1,444.7l22.5,59.7h-45L271.1,444.7z M312.6,348.1h-81.5l-99.8,247.7h84l12.6-33H314l13,33h89.2
	L312.6,348.1z"/>
<g class="tm">
	<defs>
		<rect id="SVGID_3_" x="-251.9" y="320" width="681" height="275.8"/>
	</defs>
	<clipPath id="SVGID_4_">
		<use xlink:href="#SVGID_3_"  style="overflow:visible;"/>
	</clipPath>
	<path class="st2" d="M389.2,320c-22,0-39.9,17.9-39.9,39.9c0,22,17.9,39.9,39.9,39.9c22,0,39.9-17.9,39.9-39.9
		C429.1,337.9,411.2,320,389.2,320 M389.2,395.5c-19.7,0-35.6-16-35.6-35.6c0-19.7,16-35.6,35.6-35.6c19.7,0,35.6,16,35.6,35.6
		C424.9,379.5,408.9,395.5,389.2,395.5"/>
	<path class="st2" d="M376,368.4c-0.1,0-0.4,0.1-0.9,0.1c-2.7,0-4.1-1.5-4.1-4.4l0-9.6h5.5v-5h-5.5l0-6.3h-5.7l0,6.3h-3.1v5h3
		l0,10.1c0,8.3,6.6,9.2,9.4,9.2c0.9,0,1.6-0.1,1.6-0.1l0.6-0.1v-5.4L376,368.4z"/>
	<path class="st2" d="M408,349c-3.6,0-6.4,2.1-7.9,4.2c-1.1-2.8-3.5-4.2-7.1-4.2c-2.8,0-5.8,1.3-7.5,3.3c-0.9-2.4-3-2.9-6.3-2.9
		c-0.2,0-0.3,0-0.5,0.1l-0.2,0.1l0,4.9l0.2,0c0.7,0,1.4,0.3,1.4,2.5l0,16.1l0,0.4v0.2l5.9,0.1v-11.9c0-0.8,0.1-1.4,0.2-1.9
		c0.7-2.5,2.6-5.4,5.8-5.4c2.7,0,3.2,1.8,3.2,5v14.3h5.8v-11.1c0-1.2,0.1-2.1,0.3-2.9c0.7-2.6,2.7-5.2,5.7-5.2c2.4,0,3.3,1.3,3.3,5
		v14.3h5.8v-15.3C416.2,352.1,413.4,349,408,349"/>
</g>
</svg>
