<svg version="1.1" xmlns="http://www.w3.org/2000/svg" xmlns:xlink="http://www.w3.org/1999/xlink" x="0px" y="0px" viewBox="0 440 1500 700" style="width:2.5em; height: 1.25em;" xml:space="preserve">
          <path d="M0,606.7h472.1c30-46.8,69.5-84,118.5-111.4C639.5,467.7,692.7,454,750,454s110.6,13.8,159.7,41.4s88.5,64.7,118.2,111.3
            H1500l-46.8,47.4H1053c8,17.6,14,35.9,18.1,55h327l-46.8,46.8h-273.2c0.8,12.1,1.2,21.3,1.2,27.5s-0.4,15.4-1.2,27.5h218.2
            l-46.8,46.8h-178.4c-4.1,19.5-10.1,37.9-18.1,55.3h141.6l-47.4,47.1h-119.3c-29.6,46.6-69,83.8-118.2,111.4
            c-49.1,27.7-102.4,41.5-159.7,41.5s-110.5-13.8-159.4-41.4s-88.4-64.8-118.5-111.6H352.8l-46.5-47.1h141.3
            c-8-17.4-14-35.8-18.1-55.3H251l-47.4-46.8h218.2c-0.8-12.1-1.2-21.3-1.2-27.5s0.4-15.4,1.2-27.5H149.2l-47.4-46.8h327.6
            c4.1-19.1,10.1-37.4,18.1-55H46.8L0,606.7z M467.7,783.4c0,38.2,7.5,74.7,22.4,109.5s35,64.8,60.3,90.1
            c25.3,25.3,55.3,45.3,90.1,60.3s71.3,22.4,109.5,22.4s74.8-7.5,109.7-22.4s65-35,90.2-60.3c25.3-25.3,45.4-55.3,60.4-90.1
            s22.5-71.3,22.5-109.5c0-38.2-7.5-74.7-22.5-109.5s-35.2-64.8-60.4-89.9s-55.3-45.2-90.2-60.1c-34.9-14.9-71.5-22.4-109.7-22.4
            s-74.7,7.5-109.5,22.4c-34.8,14.9-64.8,35-90.1,60.1C525.1,609,505,639,490.1,673.8S467.7,745.1,467.7,783.4z M524.8,857.7H554
            V746.8l35.4,110.9h33.1l34.8-110.3v110.3h29.8V709.1h-43l-37.7,118.8l-38.3-118.8h-43.3V857.7z M720.7,857.7h31V709.1h-31V857.7z
             M785.4,857.7h29.8V750.6l59.4,107.1h36V709.1h-29.3V817L822,709.1h-36.6V857.7z M944.8,857.7h30.4V709.1h-30.4V857.7z"></path>
          </svg>