<svg xmlns="http://www.w3.org/2000/svg" id="Livello_1" viewBox="0 0 496.5 198.7" width="79" height="60"><style>.st0{fill-rule:evenodd;clip-rule:evenodd}</style><path d="M85.4 0h40.3v106.1c0 18.3-7.8 56.5-63.7 56.5S0 126.9 0 106.9V87.4h39v19.1c0 11.7 7.8 22.6 22.5 22.6s23.9-8.3 23.9-22.2V0zM210.8 90c0-10.9-6.1-21.3-19.9-21.3-13.4 0-18.2 9.6-18.2 21.3h38.1zm-22.6-45.7c31.7 0 59.4 12.2 59.4 68.2h-75c0 17.8 7.4 25.2 20.4 25.2 13 0 17.3-10.4 17.3-10.4h36.9c0 16.1-22.1 37.8-55.5 37.4-38.2 0-56.8-28.3-56.8-57.4 0-29.1 16.4-63 53.3-63M331.3 90c0-10.9-6.1-21.3-19.9-21.3-13.4 0-18.2 9.6-18.2 21.3h38.1zm-22.5-45.7c31.7 0 59.4 12.2 59.4 68.2h-75c0 17.8 7.4 25.2 20.4 25.2 13 0 17.4-10.4 17.4-10.4h36.9c0 16.1-22.1 37.8-55.5 37.4-38.2 0-56.8-28.3-56.8-57.4-.2-29.1 16.3-63 53.2-63M414.5 106.1c-.4 22.2 4.3 33.9 22.6 33.9s20.8-20 20.8-35.2c0-15.2-3.5-30-22.5-30-11.8 0-20.5 9.1-20.9 31.3m-36.8 92.6v-150H415v17.1c1.3-2.9 2.3-4.9 5.2-8.4 2.5-3 9.5-11.7 28.2-11.7 18.6 0 47.7 13 47.7 59.1 0 35.6-17.3 61.7-47.3 61.7-16.5 0-23.9-5.8-28.2-9.1-2.8-2.2-3.6-3.1-5.2-5.2v46.5h-37.7z"></path><path class="st0" d="M485.2 181.3c1.5 0 2.6.1 3.3.4 1.3.5 1.9 1.6 1.9 3.1 0 1.1-.4 1.9-1.2 2.4-.4.3-1 .5-1.8.6 1 .2 1.7.6 2.1 1.2.4.6.7 1.3.7 1.9v1.8c0 .3.1.5.1.6l.1.2h-2v-.1-1.5c0-1.4-.4-2.4-1.2-2.8-.5-.3-1.3-.4-2.4-.4H483v4.8h-2.2v-12.3h4.4zm2.3 1.9c-.5-.3-1.4-.5-2.6-.5H483v4.4h1.9c.9 0 1.6-.1 2-.3.8-.3 1.3-1 1.3-1.9.1-.8-.2-1.4-.7-1.7m5.8 12.2c-2.2 2.2-4.8 3.3-7.9 3.3-3.1 0-5.7-1.1-7.9-3.3-2.2-2.2-3.2-4.8-3.2-7.9 0-3.1 1.1-5.7 3.3-7.9 2.2-2.2 4.8-3.3 7.9-3.3 3.1 0 5.7 1.1 7.9 3.3 2.2 2.2 3.3 4.8 3.3 7.9-.2 3-1.2 5.7-3.4 7.9m-14.7-14.8c-1.9 1.9-2.8 4.1-2.8 6.8s.9 5 2.8 6.9c1.9 1.9 4.1 2.8 6.8 2.8s4.9-.9 6.8-2.8c1.9-1.9 2.8-4.2 2.8-6.9s-.9-4.9-2.8-6.8c-1.9-1.9-4.1-2.8-6.8-2.8s-4.9.9-6.8 2.8"></path></svg>